<mxfile host="app.diagrams.net" modified="2022-08-19T05:57:15.034Z" agent="5.0 (Windows NT 10.0; Win64; x64) AppleWebKit/537.36 (KHTML, like Gecko) Chrome/104.0.0.0 Safari/537.36" etag="YqgtdDhd_JFaWM21C1_g" version="20.2.4" type="github">
  <diagram id="0eo92cPZ57Tyc6aKq6e4" name="Page-1">
    <mxGraphModel dx="1422" dy="705" grid="1" gridSize="10" guides="1" tooltips="1" connect="1" arrows="1" fold="1" page="1" pageScale="1" pageWidth="827" pageHeight="1169" math="0" shadow="0">
      <root>
        <mxCell id="0" />
        <mxCell id="1" parent="0" />
        <mxCell id="czHnVRHmaS91J3RfpM5Z-2" value="" style="edgeStyle=orthogonalEdgeStyle;rounded=0;orthogonalLoop=1;jettySize=auto;html=1;fontSize=16;" edge="1" parent="1" source="czHnVRHmaS91J3RfpM5Z-3">
          <mxGeometry relative="1" as="geometry">
            <mxPoint x="250" y="220" as="targetPoint" />
          </mxGeometry>
        </mxCell>
        <mxCell id="czHnVRHmaS91J3RfpM5Z-20" style="edgeStyle=orthogonalEdgeStyle;rounded=0;orthogonalLoop=1;jettySize=auto;html=1;exitX=1;exitY=0.5;exitDx=0;exitDy=0;entryX=0;entryY=0.5;entryDx=0;entryDy=0;fontFamily=Verdana;" edge="1" parent="1" source="czHnVRHmaS91J3RfpM5Z-8" target="czHnVRHmaS91J3RfpM5Z-10">
          <mxGeometry relative="1" as="geometry" />
        </mxCell>
        <mxCell id="czHnVRHmaS91J3RfpM5Z-21" style="edgeStyle=orthogonalEdgeStyle;rounded=0;orthogonalLoop=1;jettySize=auto;html=1;exitX=1;exitY=0.5;exitDx=0;exitDy=0;entryX=0;entryY=0.5;entryDx=0;entryDy=0;fontFamily=Verdana;" edge="1" parent="1" source="czHnVRHmaS91J3RfpM5Z-8" target="czHnVRHmaS91J3RfpM5Z-11">
          <mxGeometry relative="1" as="geometry" />
        </mxCell>
        <mxCell id="czHnVRHmaS91J3RfpM5Z-22" style="edgeStyle=orthogonalEdgeStyle;rounded=0;orthogonalLoop=1;jettySize=auto;html=1;exitX=1;exitY=0.5;exitDx=0;exitDy=0;entryX=0;entryY=0.5;entryDx=0;entryDy=0;fontFamily=Verdana;" edge="1" parent="1" source="czHnVRHmaS91J3RfpM5Z-8" target="czHnVRHmaS91J3RfpM5Z-12">
          <mxGeometry relative="1" as="geometry" />
        </mxCell>
        <mxCell id="czHnVRHmaS91J3RfpM5Z-8" value="AXIS-switch M1S7" style="rounded=1;whiteSpace=wrap;html=1;fillColor=#dae8fc;strokeColor=#6c8ebf;" vertex="1" parent="1">
          <mxGeometry x="337" y="175" width="120" height="60" as="geometry" />
        </mxCell>
        <mxCell id="czHnVRHmaS91J3RfpM5Z-23" style="edgeStyle=orthogonalEdgeStyle;rounded=0;orthogonalLoop=1;jettySize=auto;html=1;exitX=1;exitY=0.5;exitDx=0;exitDy=0;entryX=0;entryY=0.5;entryDx=0;entryDy=0;fontFamily=Verdana;" edge="1" parent="1" source="czHnVRHmaS91J3RfpM5Z-10" target="czHnVRHmaS91J3RfpM5Z-16">
          <mxGeometry relative="1" as="geometry" />
        </mxCell>
        <mxCell id="czHnVRHmaS91J3RfpM5Z-10" value="SM4-XTS core1" style="rounded=1;whiteSpace=wrap;html=1;fillColor=#d5e8d4;strokeColor=#82b366;" vertex="1" parent="1">
          <mxGeometry x="523" y="137" width="113" height="45" as="geometry" />
        </mxCell>
        <mxCell id="czHnVRHmaS91J3RfpM5Z-27" style="edgeStyle=orthogonalEdgeStyle;rounded=0;orthogonalLoop=1;jettySize=auto;html=1;exitX=1;exitY=0.5;exitDx=0;exitDy=0;entryX=0;entryY=0.5;entryDx=0;entryDy=0;fontFamily=Verdana;" edge="1" parent="1" source="czHnVRHmaS91J3RfpM5Z-11" target="czHnVRHmaS91J3RfpM5Z-16">
          <mxGeometry relative="1" as="geometry" />
        </mxCell>
        <mxCell id="czHnVRHmaS91J3RfpM5Z-11" value="SM4-XTS core2" style="rounded=1;whiteSpace=wrap;html=1;fillColor=#d5e8d4;strokeColor=#82b366;" vertex="1" parent="1">
          <mxGeometry x="523" y="195" width="113" height="45" as="geometry" />
        </mxCell>
        <mxCell id="czHnVRHmaS91J3RfpM5Z-25" style="edgeStyle=orthogonalEdgeStyle;rounded=0;orthogonalLoop=1;jettySize=auto;html=1;exitX=1;exitY=0.5;exitDx=0;exitDy=0;entryX=0;entryY=0.5;entryDx=0;entryDy=0;fontFamily=Verdana;" edge="1" parent="1" source="czHnVRHmaS91J3RfpM5Z-12" target="czHnVRHmaS91J3RfpM5Z-16">
          <mxGeometry relative="1" as="geometry" />
        </mxCell>
        <mxCell id="czHnVRHmaS91J3RfpM5Z-12" value="SM4-XTS core7" style="rounded=1;whiteSpace=wrap;html=1;fillColor=#d5e8d4;strokeColor=#82b366;" vertex="1" parent="1">
          <mxGeometry x="523" y="296" width="113" height="45" as="geometry" />
        </mxCell>
        <mxCell id="czHnVRHmaS91J3RfpM5Z-13" value="&lt;h3&gt;&lt;font face=&quot;Verdana&quot;&gt;...&lt;/font&gt;&lt;/h3&gt;" style="text;html=1;align=center;verticalAlign=middle;resizable=0;points=[];autosize=1;strokeColor=none;fillColor=none;rotation=90;" vertex="1" parent="1">
          <mxGeometry x="560" y="247" width="40" height="60" as="geometry" />
        </mxCell>
        <mxCell id="czHnVRHmaS91J3RfpM5Z-19" style="edgeStyle=orthogonalEdgeStyle;rounded=0;orthogonalLoop=1;jettySize=auto;html=1;entryX=0;entryY=0.5;entryDx=0;entryDy=0;fontFamily=Verdana;" edge="1" parent="1" source="czHnVRHmaS91J3RfpM5Z-14" target="czHnVRHmaS91J3RfpM5Z-8">
          <mxGeometry relative="1" as="geometry" />
        </mxCell>
        <mxCell id="czHnVRHmaS91J3RfpM5Z-14" value="SM4-ECB(Tweak)" style="rounded=1;whiteSpace=wrap;html=1;fillColor=#d5e8d4;strokeColor=#82b366;" vertex="1" parent="1">
          <mxGeometry x="160" y="175" width="120" height="60" as="geometry" />
        </mxCell>
        <mxCell id="czHnVRHmaS91J3RfpM5Z-18" value="" style="edgeStyle=orthogonalEdgeStyle;rounded=0;orthogonalLoop=1;jettySize=auto;html=1;fontFamily=Verdana;" edge="1" parent="1" source="czHnVRHmaS91J3RfpM5Z-15" target="czHnVRHmaS91J3RfpM5Z-14">
          <mxGeometry relative="1" as="geometry" />
        </mxCell>
        <mxCell id="czHnVRHmaS91J3RfpM5Z-15" value="H2C" style="rounded=1;whiteSpace=wrap;html=1;fillColor=#f5f5f5;fontColor=#333333;strokeColor=#666666;" vertex="1" parent="1">
          <mxGeometry y="175" width="120" height="60" as="geometry" />
        </mxCell>
        <mxCell id="czHnVRHmaS91J3RfpM5Z-26" style="edgeStyle=orthogonalEdgeStyle;rounded=0;orthogonalLoop=1;jettySize=auto;html=1;exitX=1;exitY=0.5;exitDx=0;exitDy=0;entryX=0;entryY=0.5;entryDx=0;entryDy=0;fontFamily=Verdana;" edge="1" parent="1" source="czHnVRHmaS91J3RfpM5Z-16" target="czHnVRHmaS91J3RfpM5Z-17">
          <mxGeometry relative="1" as="geometry" />
        </mxCell>
        <mxCell id="czHnVRHmaS91J3RfpM5Z-16" value="AXIS-switch S7M1" style="rounded=1;whiteSpace=wrap;html=1;fillColor=#d5e8d4;strokeColor=#82b366;" vertex="1" parent="1">
          <mxGeometry x="736" y="180" width="120" height="60" as="geometry" />
        </mxCell>
        <mxCell id="czHnVRHmaS91J3RfpM5Z-17" value="C2H" style="rounded=1;whiteSpace=wrap;html=1;fillColor=#f5f5f5;fontColor=#333333;strokeColor=#666666;" vertex="1" parent="1">
          <mxGeometry x="909" y="180" width="120" height="60" as="geometry" />
        </mxCell>
      </root>
    </mxGraphModel>
  </diagram>
</mxfile>
